<svg version="1.1" id="Layer_1" xmlns="http://www.w3.org/2000/svg" xmlns:xlink="http://www.w3.org/1999/xlink" x="0px" y="0px"
	 width="100%" viewBox="0 0 448 448" enable-background="new 0 0 448 448" xml:space="preserve">
<path fill="#000000" opacity="1.000000" stroke="none" 
	d="
M303.230194,230.731018 
	C307.777496,236.777817 306.706848,240.672760 300.615936,244.252747 
	C290.941956,249.938721 279.752838,250.069199 269.397339,253.223022 
	C265.144745,254.518158 260.615692,254.876450 256.292419,255.975647 
	C250.147568,257.537994 244.041275,258.762604 237.613159,258.342285 
	C228.790909,257.765442 220.177094,260.730164 211.287018,260.137024 
	C208.181320,259.929810 205.084488,258.811920 201.910461,260.136047 
	C217.080078,260.404724 232.223236,261.971069 247.422089,260.822662 
	C222.360352,263.799622 197.320786,265.771515 172.037048,259.283722 
	C174.543076,256.012299 177.398773,260.010223 179.896637,257.765747 
	C167.473892,254.872559 155.335464,251.855942 143.102692,249.288818 
	C138.122971,248.243790 133.511993,246.563156 129.191696,244.031998 
	C123.035423,240.425171 123.181099,233.807510 129.459229,230.295761 
	C133.244064,228.178680 137.255341,226.392914 141.538528,225.792053 
	C151.563446,224.385803 161.603165,222.910660 171.751038,222.794907 
	C174.959778,222.758286 178.490372,222.824127 179.762329,228.029465 
	C169.751205,228.490891 159.953812,228.242004 150.164261,232.054504 
	C158.625259,235.951248 166.655365,228.319244 176.005539,232.101593 
	C169.616974,235.461136 163.564957,234.334061 157.184906,236.604309 
	C163.509094,237.105881 169.060135,233.990585 174.275696,237.743347 
	C171.962555,240.571014 168.093994,238.105011 166.225754,240.719727 
	C169.326782,245.736084 175.432266,238.950012 179.011200,243.324554 
	C162.249802,249.636841 147.344818,243.812698 131.882782,235.888992 
	C134.427307,243.708023 140.771240,244.327042 146.069626,245.385040 
	C157.426315,247.652832 168.947998,249.102402 180.411667,250.823547 
	C188.468872,252.033264 196.595856,252.384583 204.728821,252.717728 
	C224.675003,253.534760 244.472870,252.312027 264.110596,248.681656 
	C272.920654,247.052948 281.743011,245.481735 290.522766,243.701859 
	C294.420105,242.911758 297.303101,240.670944 298.990082,235.548553 
	C283.020599,242.731125 267.917908,250.191116 250.471466,243.072220 
	C252.854584,241.079636 255.487686,239.506760 258.262787,241.436325 
	C260.996613,243.337158 262.371155,241.811508 264.369324,240.480484 
	C261.799713,238.388504 257.985718,240.394058 255.907349,236.838730 
	C261.039948,234.565598 266.105621,236.335541 271.080414,235.947449 
	C263.540283,235.521118 256.085266,230.838303 248.406204,236.090469 
	C247.283783,236.858185 245.861603,237.356216 245.670746,238.710266 
	C244.487106,247.107803 238.081253,248.703506 231.452271,249.017731 
	C221.479462,249.490463 211.456604,249.516922 201.480209,249.112259 
	C193.397980,248.784393 190.999557,246.056442 189.486465,238.244080 
	C187.960953,230.367584 184.675079,223.066132 181.771500,215.640793 
	C177.913284,205.774124 173.616989,196.105362 169.291672,186.436417 
	C166.950256,181.202301 164.727127,176.113449 160.285721,172.291870 
	C156.970184,169.439072 157.689529,167.064728 161.197601,164.937256 
	C166.088043,161.971420 171.535934,161.742020 177.008759,161.253128 
	C185.568527,160.488510 194.101318,159.420120 202.643723,158.464081 
	C205.073990,158.192093 207.095383,158.536148 207.182800,161.568039 
	C207.273834,164.724579 204.829117,164.312027 202.930862,164.287506 
	C192.974762,164.158890 183.082291,164.407593 173.180908,168.193665 
	C177.534470,171.822372 182.591110,171.864365 187.380722,172.614792 
	C189.169998,172.895126 191.042389,172.739304 192.871307,172.657471 
	C209.023071,171.934753 225.115570,174.148254 241.255142,173.645126 
	C247.716568,173.443710 254.209930,173.008850 260.271484,170.383774 
	C261.717377,169.757614 263.632263,169.614929 264.170258,167.261749 
	C262.078369,165.413391 260.388184,165.376694 257.047638,165.630280 
	C251.355972,166.062363 245.098557,166.238922 239.258881,164.819748 
	C237.233398,164.327515 234.874405,164.998520 232.809814,163.035309 
	C234.324921,158.716827 238.044968,158.401367 241.585220,158.777420 
	C249.981995,159.669342 258.420105,160.505676 266.569031,162.903336 
	C269.904175,163.884628 274.241760,164.896255 274.847900,168.433929 
	C275.686707,173.329330 269.810577,173.265137 267.012085,176.069092 
	C270.313263,179.639236 269.555420,183.812851 267.672272,188.106171 
	C270.141357,188.008072 270.338226,186.671371 270.699005,185.380371 
	C272.232666,179.892258 276.116089,178.088425 281.263702,180.648300 
	C288.699585,184.346115 293.884827,195.123520 286.682220,203.758270 
	C283.825165,207.183426 281.765991,211.365067 277.747620,213.685089 
	C273.840912,215.940643 270.619690,219.013519 266.063416,222.516754 
	C279.115692,224.821747 291.954895,223.739868 303.230194,230.731018 
M283.818115,200.012527 
	C285.065247,196.274017 286.029144,192.506149 282.389313,189.510895 
	C279.689819,187.289490 276.294922,187.570877 274.063202,189.550827 
	C269.440155,193.652390 263.333832,196.604416 261.471588,203.197464 
	C259.151489,211.411591 252.525513,217.511078 250.878387,225.907669 
	C253.067444,225.535538 255.190857,224.455246 256.916229,222.559814 
	C258.697113,220.603424 260.358429,218.574860 262.925812,217.447723 
	C271.303833,213.769531 277.594696,207.474289 283.818115,200.012527 
M195.372803,241.718887 
	C195.879456,242.146790 196.321579,242.805817 196.902405,242.967957 
	C205.762192,245.441010 214.815231,246.035919 223.957489,245.531433 
	C225.200897,245.462814 226.126770,244.744308 225.859512,242.414108 
	C215.636993,242.624374 205.424347,241.226883 195.196075,239.965714 
	C195.180176,239.963745 195.063187,240.781448 195.372803,241.718887 
M198.708984,212.046478 
	C199.389481,211.313232 199.259613,210.599228 198.740204,209.820023 
	C194.873322,204.019043 189.118393,205.591187 182.485031,205.370895 
	C185.674835,207.692505 189.222229,205.285934 190.908340,208.375229 
	C189.210037,210.513550 186.399368,208.187515 184.418991,211.043869 
	C188.874634,214.066116 193.632141,212.313416 198.708984,212.046478 
M197.576157,233.163193 
	C199.002930,234.272964 197.101913,234.925598 197.141861,235.943222 
	C201.647308,236.703156 205.988098,239.167648 210.286102,237.501099 
	C207.386765,228.711212 200.755615,230.269882 194.187592,230.454926 
	C194.899109,232.169327 196.222580,232.199081 197.576157,233.163193 
M192.850372,182.157272 
	C187.586029,180.405334 181.970367,182.483871 176.479568,180.387009 
	C177.773148,182.765808 176.642593,184.882935 176.373581,187.589615 
	C182.437607,187.170303 188.035721,189.011047 195.037567,187.515274 
	C180.502579,186.945984 180.502579,186.945984 179.142639,182.685608 
	C184.985046,182.576996 190.705902,184.916809 196.319672,182.592941 
	C195.362198,182.511414 194.404709,182.429886 192.850372,182.157272 
M279.733704,232.430344 
	C276.372711,229.539185 272.123688,229.898727 268.164124,229.475403 
	C264.948822,229.131653 261.575745,229.600159 261.310577,225.091751 
	C258.094971,225.935577 256.550385,227.590607 255.708481,230.831390 
	C261.329956,231.056747 266.715576,230.511490 271.939880,232.111893 
	C274.281799,232.829315 276.771820,234.706757 279.733704,232.430344 
M182.173431,177.287354 
	C177.933472,176.459076 173.693512,175.630798 169.453552,174.802521 
	C177.388107,178.805450 185.870102,178.656784 194.341171,178.579514 
	C190.481445,178.959381 186.836899,177.111862 182.173431,177.287354 
M191.731720,195.752884 
	C187.522232,195.752884 183.312744,195.752884 179.103271,195.752884 
	C185.165375,195.916824 191.121735,197.727158 197.238480,196.675140 
	C195.664078,196.458771 194.089661,196.242401 191.731720,195.752884 
M200.915344,222.935989 
	C202.906235,223.546616 204.958130,224.532501 207.094467,221.569336 
	C201.325943,221.569336 196.195557,221.569336 190.669495,221.569336 
	C193.708206,224.692703 197.188065,221.690018 200.915344,222.935989 
M190.580795,215.336792 
	C189.978882,215.409790 189.376984,215.482788 188.775070,215.555786 
	C192.669769,216.866959 196.556671,217.080551 201.366425,216.196823 
	C197.468216,214.956314 194.362274,215.408981 190.580795,215.336792 
M184.135590,200.348511 
	C183.277100,200.584595 182.140213,199.891312 181.316650,201.566254 
	C185.931244,201.566254 190.296387,201.566254 194.661530,201.566254 
	C191.395508,201.332550 188.262878,199.936737 184.135590,200.348511 
M198.578354,226.910553 
	C201.517334,227.291351 204.471848,228.459534 208.108551,226.667053 
	C203.064224,225.621124 198.740601,225.797836 194.402527,226.672318 
	C195.539658,226.727127 196.676788,226.781921 198.578354,226.910553 
M190.942215,259.116241 
	C192.670563,259.464600 194.393524,260.067017 197.508331,258.740784 
	C192.214661,258.740784 188.253586,258.740784 184.292496,258.740784 
	C184.286987,258.828979 184.281494,258.917175 184.275986,259.005371 
	C186.234222,259.005371 188.192459,259.005371 190.942215,259.116241 
M168.162369,172.118835 
	C169.171402,172.522842 170.179855,173.083832 171.504532,171.951294 
	C169.147964,171.052414 167.631821,168.954086 164.992035,168.644806 
	C164.709488,170.950043 166.458954,171.122864 168.162369,172.118835 
z"/>
<path fill="#000000" opacity="1.000000" stroke="none" 
	d="
M272.991913,136.983871 
	C283.341370,132.608719 294.242645,129.304321 302.531036,121.035316 
	C304.396301,119.174416 306.017426,117.544304 305.304230,114.323761 
	C303.722351,115.093254 302.169739,115.611122 300.883606,116.510193 
	C284.667847,127.845703 266.364563,132.665009 246.926620,134.444611 
	C239.331024,135.139999 231.745895,137.041351 225.449005,141.645325 
	C216.187454,148.416885 213.067078,157.666855 216.227295,168.875107 
	C211.576126,168.475311 208.280716,165.357986 208.704254,160.890289 
	C210.023941,146.969360 214.307587,138.244049 228.319931,132.447830 
	C243.949051,125.982826 260.445221,123.093811 276.656647,118.953835 
	C284.275909,117.008057 291.141144,113.197769 297.666931,108.843811 
	C304.515717,104.274391 307.527435,95.229698 305.074188,86.689743 
	C304.575897,84.955032 303.924896,83.264175 303.162994,81.018776 
	C307.543854,81.248695 309.470306,84.573624 312.070068,86.746353 
	C315.277954,89.427277 314.343536,93.149841 314.211578,96.549156 
	C314.071777,100.150696 311.096313,103.071930 311.256287,106.913162 
	C312.465088,106.618027 312.468750,105.697876 312.708832,104.931671 
	C313.095154,103.698608 313.855286,102.825912 315.222534,102.988686 
	C316.618896,103.154907 317.009369,104.337662 317.237335,105.514046 
	C318.338623,111.197990 316.922089,116.397446 313.833344,121.115662 
	C307.876343,130.215225 299.187683,135.774384 289.220703,139.689713 
	C297.825714,136.492279 307.005798,134.138184 313.786591,127.826187 
	C318.857483,123.105881 322.002106,116.657097 322.659088,109.370483 
	C323.068359,104.831070 320.214294,101.640198 317.914429,98.225075 
	C326.888458,94.049950 338.691986,101.988968 337.128693,111.377075 
	C335.452362,121.444183 330.482239,129.619431 320.729462,134.779770 
	C311.437042,139.696564 301.625641,142.120392 291.492737,143.937195 
	C288.850922,144.410873 286.241943,144.557938 283.578857,143.985718 
	C283.341583,142.146774 285.604736,142.450180 285.868500,140.946121 
	C285.371582,141.066406 284.928802,141.126251 284.520905,141.279236 
	C274.064911,145.201370 262.826843,145.889801 252.180679,149.090103 
	C249.015671,150.041550 249.609833,147.795288 250.445282,145.711197 
	C242.311432,151.485596 231.227615,153.912842 228.554199,166.081528 
	C226.069412,164.187622 226.289322,161.861923 227.257401,159.773132 
	C230.627731,152.501129 235.406723,146.815964 243.204895,143.527054 
	C253.028183,139.384064 263.214539,136.727692 273.183868,133.778244 
	C274.140778,135.072906 273.283936,135.719315 272.708130,136.791046 
	C267.134979,138.369904 262.488739,140.633606 258.070007,143.391174 
	C263.524719,142.323105 268.544159,140.292007 272.991913,136.983871 
z"/>
<path fill="#000000" opacity="1.000000" stroke="none" 
	d="
M392.535553,254.113403 
	C389.622772,262.325500 382.764557,263.491058 375.905914,264.254242 
	C371.955933,264.693756 367.911163,264.200836 363.920044,264.376740 
	C360.600555,264.522980 359.381439,263.047424 359.659882,259.916168 
	C359.733368,259.089935 359.646667,258.250671 359.664307,257.418060 
	C359.815857,250.261703 358.036560,248.221176 367.880188,248.625275 
	C372.123016,248.799454 374.533447,246.987305 375.115814,242.325714 
	C375.946564,235.675568 374.499847,229.055298 375.513306,222.409332 
	C376.236389,217.667496 376.878967,213.207687 381.639557,210.620682 
	C383.401276,209.663330 384.860901,207.609909 382.535309,206.362045 
	C374.341339,201.965210 375.660889,194.186874 375.167999,187.057144 
	C374.916290,183.415726 375.204346,179.740067 375.054504,176.087845 
	C374.756042,168.812531 373.054962,166.504440 365.908691,166.599884 
	C360.101288,166.677429 359.129089,164.107208 359.660217,159.417603 
	C359.772064,158.430054 359.771423,157.411407 359.674164,156.421692 
	C359.243805,152.043060 361.248627,150.367279 365.537018,150.684387 
	C368.518890,150.904877 371.532745,150.653091 374.530975,150.699570 
	C387.640930,150.902725 393.980652,157.130554 394.313538,170.299301 
	C394.469330,176.460434 394.303772,182.629013 394.364990,188.793411 
	C394.436859,196.032135 396.764435,199.040161 403.994324,201.062119 
	C404.639984,205.505646 404.439758,210.078018 404.067413,214.600082 
	C395.903351,216.606644 394.562958,218.566589 394.306366,226.972977 
	C394.033752,235.904526 395.630585,244.964935 392.535553,254.113403 
z"/>
<path fill="#000000" opacity="1.000000" stroke="none" 
	d="
M98.443787,181.104675 
	C98.533562,176.179657 98.458961,171.677811 98.686424,167.191284 
	C99.183319,157.390686 104.930244,151.656982 114.747391,150.939224 
	C119.094765,150.621399 123.404831,150.939835 127.668747,151.782776 
	C132.031845,152.645355 133.190155,155.447083 132.954971,162.468262 
	C132.804718,166.953873 129.845032,166.276794 127.058243,166.393402 
	C118.916344,166.734116 116.642914,169.285065 116.363434,177.433929 
	C116.136230,184.058228 117.007652,190.678085 115.782295,197.330017 
	C115.009209,201.526810 110.463028,203.326752 109.992752,206.851334 
	C109.512939,210.447327 114.649475,211.874664 115.499146,215.845093 
	C116.956573,222.655548 116.213181,229.435043 116.323830,236.221878 
	C116.474396,245.456940 118.798111,248.314865 127.821800,248.925873 
	C130.993576,249.140640 132.388947,250.382263 132.366364,253.461349 
	C132.342072,256.776154 132.360886,260.091339 132.360886,264.013824 
	C123.060493,264.418213 113.882248,265.406219 105.117203,261.182007 
	C99.518089,258.483582 99.000282,253.235718 98.721558,248.059982 
	C98.283592,239.927338 98.144585,231.777985 97.923355,223.634506 
	C97.805458,219.295059 95.844505,216.383240 91.628304,215.087967 
	C85.809738,213.300446 87.931747,208.393661 87.719704,204.586472 
	C87.521683,201.030777 89.410484,199.311569 93.281090,199.231705 
	C96.145531,199.172577 97.284973,196.645020 97.655731,193.944260 
	C98.221161,189.825394 98.904877,185.716980 98.443787,181.104675 
z"/>
<path fill="#000000" opacity="1.000000" stroke="none" 
	d="
M300.792725,272.208893 
	C295.955322,268.971558 296.776581,264.556152 298.634644,260.906128 
	C304.817352,248.760788 309.312500,235.913345 314.487579,223.370056 
	C317.352203,216.426819 317.855438,208.546494 319.933655,201.233658 
	C323.823700,187.545258 328.126526,173.974609 332.155060,160.324707 
	C332.900269,157.799744 333.594788,155.126083 333.558777,152.531525 
	C333.478210,146.724274 335.169067,141.777725 339.544800,137.439636 
	C341.895050,137.945435 344.409058,138.646225 347.067596,138.766006 
	C351.849792,138.981506 353.878052,142.829178 355.021851,146.614960 
	C356.097717,150.175751 355.763214,154.842499 352.338074,156.529663 
	C346.729065,159.292526 344.643951,163.957687 342.930420,169.146652 
	C338.313965,183.126419 333.913879,197.178146 329.229614,211.134750 
	C327.744049,215.560989 328.624207,220.223633 326.616913,224.714355 
	C322.357819,234.242844 317.429291,243.638367 317.776520,254.695877 
	C317.872620,257.755707 318.355042,260.532227 319.216125,263.335999 
	C320.434814,267.304077 321.192078,271.314087 317.413269,274.228271 
	C313.439728,277.292603 307.418518,276.972992 303.633667,274.019409 
	C302.850586,273.408325 301.965790,272.927551 300.792725,272.208893 
z"/>
<path fill="#000000" opacity="1.000000" stroke="none" 
	d="
M268.474792,209.603973 
	C266.833954,210.222076 265.661987,211.509430 264.066895,210.610931 
	C264.417450,202.458527 274.372986,192.917084 281.187836,194.665634 
	C280.391327,202.429642 273.084015,204.710083 268.474792,209.603973 
z"/>
</svg>